<svg viewBox="0 0 1200 630" xmlns="http://www.w3.org/2000/svg" width="1200" height="630">

  <rect width="1200" height="630" fill="#060A0A"/>

  <!-- Constellation lines -->
  <line x1="52" y1="55" x2="138" y2="28" stroke="#378ADD" stroke-opacity="0.07" stroke-width="0.8"/>
  <line x1="138" y1="28" x2="178" y2="88" stroke="#378ADD" stroke-opacity="0.07" stroke-width="0.8"/>
  <line x1="178" y1="88" x2="96" y2="178" stroke="#378ADD" stroke-opacity="0.07" stroke-width="0.8"/>
  <line x1="96" y1="178" x2="42" y2="292" stroke="#378ADD" stroke-opacity="0.07" stroke-width="0.8"/>
  <line x1="42" y1="292" x2="68" y2="418" stroke="#378ADD" stroke-opacity="0.07" stroke-width="0.8"/>
  <line x1="68" y1="418" x2="148" y2="528" stroke="#378ADD" stroke-opacity="0.07" stroke-width="0.8"/>
  <line x1="148" y1="528" x2="78" y2="598" stroke="#378ADD" stroke-opacity="0.07" stroke-width="0.8"/>
  <line x1="420" y1="22" x2="498" y2="48" stroke="#378ADD" stroke-opacity="0.05" stroke-width="0.8"/>
  <line x1="905" y1="48" x2="1048" y2="32" stroke="#378ADD" stroke-opacity="0.06" stroke-width="0.8"/>
  <line x1="1048" y1="32" x2="1148" y2="72" stroke="#378ADD" stroke-opacity="0.06" stroke-width="0.8"/>
  <line x1="1148" y1="72" x2="1098" y2="125" stroke="#378ADD" stroke-opacity="0.06" stroke-width="0.8"/>
  <line x1="1098" y1="125" x2="1178" y2="222" stroke="#378ADD" stroke-opacity="0.06" stroke-width="0.8"/>
  <line x1="778" y1="108" x2="948" y2="198" stroke="#378ADD" stroke-opacity="0.05" stroke-width="0.8"/>
  <line x1="948" y1="198" x2="1078" y2="308" stroke="#378ADD" stroke-opacity="0.05" stroke-width="0.8"/>
  <line x1="1078" y1="308" x2="1198" y2="388" stroke="#378ADD" stroke-opacity="0.05" stroke-width="0.8"/>
  <line x1="325" y1="608" x2="648" y2="612" stroke="#378ADD" stroke-opacity="0.05" stroke-width="0.8"/>
  <line x1="1008" y1="598" x2="1148" y2="568" stroke="#378ADD" stroke-opacity="0.05" stroke-width="0.8"/>

  <!-- Constellation dots -->
  <circle cx="52" cy="55" r="1.5" fill="#378ADD" opacity="0.22"/>
  <circle cx="138" cy="28" r="2" fill="#378ADD" opacity="0.28"/>
  <circle cx="178" cy="88" r="1.5" fill="#378ADD" opacity="0.20"/>
  <circle cx="96" cy="178" r="2" fill="#378ADD" opacity="0.25"/>
  <circle cx="42" cy="292" r="1.5" fill="#378ADD" opacity="0.18"/>
  <circle cx="68" cy="418" r="2" fill="#378ADD" opacity="0.22"/>
  <circle cx="148" cy="528" r="1.5" fill="#378ADD" opacity="0.20"/>
  <circle cx="78" cy="598" r="1.5" fill="#378ADD" opacity="0.15"/>
  <circle cx="420" cy="22" r="1.5" fill="#378ADD" opacity="0.15"/>
  <circle cx="498" cy="48" r="1.5" fill="#378ADD" opacity="0.12"/>
  <circle cx="905" cy="48" r="2" fill="#378ADD" opacity="0.20"/>
  <circle cx="1048" cy="32" r="1.5" fill="#378ADD" opacity="0.18"/>
  <circle cx="1148" cy="72" r="2" fill="#378ADD" opacity="0.22"/>
  <circle cx="1098" cy="125" r="1.5" fill="#378ADD" opacity="0.18"/>
  <circle cx="1178" cy="222" r="2" fill="#378ADD" opacity="0.20"/>
  <circle cx="778" cy="108" r="1.5" fill="#378ADD" opacity="0.12"/>
  <circle cx="948" cy="198" r="1.5" fill="#378ADD" opacity="0.12"/>
  <circle cx="1078" cy="308" r="1.5" fill="#378ADD" opacity="0.12"/>
  <circle cx="1198" cy="388" r="1.5" fill="#378ADD" opacity="0.12"/>
  <circle cx="325" cy="608" r="1.5" fill="#378ADD" opacity="0.12"/>
  <circle cx="648" cy="612" r="1.5" fill="#378ADD" opacity="0.10"/>
  <circle cx="1008" cy="598" r="1.5" fill="#378ADD" opacity="0.12"/>
  <circle cx="1148" cy="568" r="1.5" fill="#378ADD" opacity="0.12"/>

  <!-- Vertical separator -->
  <line x1="522" y1="68" x2="522" y2="562" stroke="#378ADD" stroke-opacity="0.14" stroke-width="0.5"/>

  <!-- Outer glow rings around seal -->
  <circle cx="270" cy="308" r="110" fill="none" stroke="#378ADD" stroke-opacity="0.05" stroke-width="18"/>
  <circle cx="270" cy="308" r="125" fill="none" stroke="#378ADD" stroke-opacity="0.03" stroke-width="24"/>

  <!-- KAUPANG SEGL — GL·06 — centered at (270, 308) scale=2.2 -->
  <g transform="translate(270,308) scale(2.2) translate(-50,-50)">
    <circle cx="50" cy="50" r="43.2" fill="#060A0A"/>
    <circle cx="50" cy="50" r="38" fill="none" stroke="#378ADD" stroke-width="0.6"/>
    <circle cx="50" cy="50" r="44" fill="none" stroke="#378ADD" stroke-width="1.5"/>
    <polygon points="47,6 53,6 50,12" fill="#378ADD"/>
    <line x1="94" y1="50" x2="88" y2="50" stroke="#378ADD" stroke-width="1.5"/>
    <line x1="6"  y1="50" x2="12" y2="50" stroke="#378ADD" stroke-width="1.5"/>
    <line x1="50" y1="94" x2="50" y2="88" stroke="#378ADD" stroke-width="1.5"/>
    <line x1="27" y1="50" x2="73" y2="50" stroke="#378ADD" stroke-width="1.4"/>
    <rect x="28" y="36" width="6" height="6" fill="none" stroke="#378ADD" stroke-width="1"/>
    <rect x="38" y="35" width="6" height="6" fill="none" stroke="#85B7EB" stroke-width="1" opacity="0.85"/>
    <rect x="51" y="36" width="6" height="6" fill="none" stroke="#378ADD" stroke-width="1"/>
    <rect x="62" y="35" width="6" height="6" fill="none" stroke="#85B7EB" stroke-width="1" opacity="0.85"/>
    <rect x="32" y="54" width="6" height="6" fill="none" stroke="#85B7EB" stroke-width="1" opacity="0.85"/>
    <rect x="46" y="53" width="6" height="6" fill="none" stroke="#378ADD" stroke-width="1"/>
    <rect x="60" y="54" width="6" height="6" fill="none" stroke="#85B7EB" stroke-width="1" opacity="0.85"/>
    <text x="50" y="80" text-anchor="middle" font-family="ui-monospace, monospace" font-size="7" letter-spacing="1.2" fill="#378ADD">GL·06</text>
  </g>

  <!-- RIGHT TEXT BLOCK -->
  <text x="568" y="142" font-family="ui-monospace, monospace" font-size="11" letter-spacing="0.18em" fill="#378ADD" opacity="0.65">GL·06 · GERVI LABS SOVEREIGN SYSTEM</text>
  <line x1="568" y1="155" x2="1150" y2="155" stroke="#378ADD" stroke-opacity="0.18" stroke-width="0.5"/>
  <text x="562" y="278" font-family="'Bebas Neue', Impact, 'Arial Narrow', sans-serif" font-size="115" fill="#85B7EB" letter-spacing="0.03em">KAUPANG</text>
  <text x="568" y="326" font-family="Georgia, 'IBM Plex Serif', serif" font-size="20" fill="#B5D4F4" font-style="italic" letter-spacing="0.01em">skills, plugins, kept close</text>
  <line x1="568" y1="345" x2="1000" y2="345" stroke="#378ADD" stroke-opacity="0.12" stroke-width="0.5"/>
  <text x="568" y="372" font-family="ui-monospace, monospace" font-size="11.5" fill="#378ADD" opacity="0.55" letter-spacing="0.1em">SOVEREIGN AGENT MARKETPLACE · MVP</text>
  <text x="568" y="396" font-family="Georgia, 'IBM Plex Serif', serif" font-size="15" fill="#6A94B8">Skills and plugins built on your metal.</text>
  <text x="568" y="415" font-family="Georgia, 'IBM Plex Serif', serif" font-size="15" fill="#6A94B8">Never sent to a vendor registry.</text>

  <!-- Surface badges -->
  <rect x="568" y="444" width="36" height="36" rx="3" fill="none" stroke="#378ADD" stroke-opacity="0.45" stroke-width="1"/>
  <text x="586" y="468" text-anchor="middle" font-family="ui-monospace, monospace" font-size="15" fill="#85B7EB">A</text>
  <rect x="614" y="444" width="36" height="36" rx="3" fill="none" stroke="#378ADD" stroke-opacity="0.45" stroke-width="1"/>
  <text x="632" y="468" text-anchor="middle" font-family="ui-monospace, monospace" font-size="15" fill="#85B7EB">O</text>
  <rect x="660" y="444" width="36" height="36" rx="3" fill="none" stroke="#378ADD" stroke-opacity="0.45" stroke-width="1"/>
  <text x="678" y="468" text-anchor="middle" font-family="ui-monospace, monospace" font-size="15" fill="#85B7EB">M</text>
  <text x="568" y="500" font-family="ui-monospace, monospace" font-size="9.5" fill="#378ADD" opacity="0.4" letter-spacing="0.1em">COMPATIBLE SURFACES</text>

  <!-- Bottom strip -->
  <line x1="40" y1="588" x2="1160" y2="588" stroke="#378ADD" stroke-opacity="0.14" stroke-width="0.5"/>
  <text x="40" y="610" font-family="ui-monospace, monospace" font-size="10" fill="#378ADD" opacity="0.38" letter-spacing="0.09em">KAUPANG.BTRBOT.COM</text>
  <text x="600" y="610" text-anchor="middle" font-family="ui-monospace, monospace" font-size="10" fill="#378ADD" opacity="0.25" letter-spacing="0.09em">— THE SOVEREIGN HALL —</text>
  <text x="1160" y="610" text-anchor="end" font-family="ui-monospace, monospace" font-size="10" fill="#378ADD" opacity="0.38" letter-spacing="0.09em">GERVI LABS · 2026</text>

</svg>
